<?xml version="1.0" encoding="utf-8"?>
<!-- Generator: Adobe Illustrator 19.0.0, SVG Export Plug-In . SVG Version: 6.00 Build 0)  -->
<svg version="1.1" id="Layer_1" xmlns="http://www.w3.org/2000/svg" xmlns:xlink="http://www.w3.org/1999/xlink" x="0px" y="0px"
	 viewBox="0 0 227.1 235.2" style="enable-background:new 0 0 227.1 235.2;" xml:space="preserve">
<style type="text/css">
	.st0{fill:#FFFFFF;}
	.st1{fill:#4CAE4F;}
</style>
<path class="st0" d="M7.4,39.6l30.8,30.8l27-9.6l9.6-27L44,3c20.2-6.8,43.4-2.1,59.5,14c15.8,15.8,20.6,38.5,14.4,58.4
	c0.8,0.7,1.7,1.4,2.4,2.1l89.5,89.5c10.6,10.6,10.6,27.8,0,38.4c-10.6,10.6-27.8,10.6-38.4,0l-89.5-89.5c-0.8-0.8-1.5-1.6-2.1-2.4
	c-20,6.2-42.6,1.4-58.4-14.4C5.3,83,0.6,59.8,7.4,39.6"/>
<path class="st1" d="M215.7,37.9C148,79.4,99.2,131.9,79.4,155.1l-50.9-39.9c-1.4-1-29.3,23.8-28.5,24.5l92.6,94.2
	c0.7,0.8,1.6,1.1,2.7,1.1c0.2,0,0.4,0,0.7-0.1c1.2-0.2,2.3-1.1,2.7-2.3c14.9-38.2,64.2-118.1,127.1-176c1.1-1,1.6-2.7,0.9-4.1
	C226.7,52.6,216.7,37.3,215.7,37.9"/>
</svg>
